<svg width="865" height="335" viewBox="0 0 865 335" fill="none" xmlns="http://www.w3.org/2000/svg">
<path d="M97 284V207.5C97 201.5 96 197.667 94 196C92.3333 194 88.5 193 82.5 193H45.5C15.1667 193 1.2517e-06 178.167 1.2517e-06 148.5V66C1.2517e-06 36.6666 15.5 22 46.5 22H95.5C126.5 22 142 36.6666 142 66V112H96.5V73C96.5 67 95.5 63.1666 93.5 61.5C91.5 59.5 87.5 58.5 81.5 58.5H60.5C54.5 58.5 50.5 59.5 48.5 61.5C46.5 63.1666 45.5 67 45.5 73V142.5C45.5 148.5 46.5 152.5 48.5 154.5C50.5 156.167 54.5 157 60.5 157H97C127.667 157 143 171.667 143 201V291C143 320.333 127.333 335 96 335H47.5C16.5 335 1 320.333 1 291V245H46.5V284C46.5 290 47.5 294 49.5 296C51.5 297.667 55.5 298.5 61.5 298.5H82.5C88.5 298.5 92.3333 297.667 94 296C96 294 97 290 97 284ZM444.723 91H462.223C492.556 91 507.723 105.833 507.723 135.5V335H462.723V142C462.723 136 461.723 132.167 459.723 130.5C457.723 128.5 453.723 127.5 447.723 127.5H430.223C424.223 127.5 419.889 128.833 417.223 131.5C414.889 134.167 413.723 138.667 413.723 145V335H368.723V0.499985H413.723V110.5C418.056 97.5 428.389 91 444.723 91ZM716.207 90.5H733.707C764.04 90.5 779.207 105.333 779.207 135V291C779.207 320.333 764.04 335 733.707 335H716.207C699.874 335 689.54 328.5 685.207 315.5V335H640.207V0.499985H685.207V110C689.54 97 699.874 90.5 716.207 90.5ZM734.207 284V141.5C734.207 135.833 733.207 132 731.207 130C729.207 128 725.207 127 719.207 127H701.707C695.707 127 691.374 128.333 688.707 131C686.374 133.667 685.207 138.167 685.207 144.5V281C685.207 287.333 686.374 291.833 688.707 294.5C691.374 297.167 695.707 298.5 701.707 298.5H719.207C725.207 298.5 729.207 297.667 731.207 296C733.207 294 734.207 290 734.207 284Z" fill="white"/>
<path d="M227.164 91H280.664C311.664 91 327.164 105.833 327.164 135.5V291C327.164 320.333 311.664 335 280.664 335H227.164C196.497 335 181.164 320.333 181.164 291V135.5C181.164 105.833 196.497 91 227.164 91ZM282.664 284.5V141.5C282.664 135.5 281.664 131.5 279.664 129.5C277.664 127.5 273.664 126.5 267.664 126.5H240.164C234.164 126.5 230.164 127.5 228.164 129.5C226.497 131.5 225.664 135.5 225.664 141.5V284.5C225.664 290.5 226.497 294.5 228.164 296.5C230.164 298.5 234.164 299.5 240.164 299.5H267.664C273.664 299.5 277.664 298.5 279.664 296.5C281.664 294.5 282.664 290.5 282.664 284.5ZM550.34 44.5V-8.34465e-06H597.34V44.5H550.34ZM596.34 335H551.34V91H596.34V335ZM814.383 335V273.5H864.883V335H814.383Z" fill="#DEF50D"/>
</svg>
